<?xml version="1.0" encoding="utf-8"?>
<!-- Generator: Adobe Illustrator 19.0.1, SVG Export Plug-In . SVG Version: 6.00 Build 0)  -->
<svg version="1.1" id="Capa_1" xmlns="http://www.w3.org/2000/svg" xmlns:xlink="http://www.w3.org/1999/xlink" x="0px" y="0px"
	 width="512px" height="512px" viewBox="0 0 512 512" style="enable-background:new 0 0 512 512;" xml:space="preserve">
<style type="text/css">
	.st0{fill:#ED225D;}
	.st1{fill:#FFFFFF;}
</style>
<rect x="0" class="st0" width="512" height="512"/>
<g>
	<path class="st1" d="M445,197.3l24.3-7.3l4.8,14.7l-24.2,8.3l15,21.3l-12.7,9.2l-15.8-21l-15.4,20.4l-12.3-9.4l15-20.6l-24.4-8.8
		l4.8-14.7l24.5,7.9v-25.4H445L445,197.3L445,197.3z"/>
</g>
<g>
	<path class="st1" d="M78.8,248.5v21.2h1c1.9-3,4.4-6,7.4-9c3.1-3.1,6.8-5.8,11.3-8.2c4.4-2.4,9.5-4.4,15.1-6
		c5.6-1.6,11.9-2.4,18.9-2.4c10.8,0,20.7,2.1,29.8,6.2c9.1,4.1,16.9,9.8,23.5,17c6.5,7.2,11.6,15.6,15.2,25.4
		c3.6,9.7,5.4,20.2,5.4,31.4s-1.7,21.7-5.2,31.5c-3.5,9.8-8.5,18.4-14.9,25.7c-6.5,7.3-14.3,13.1-23.5,17.4
		c-9.2,4.3-19.6,6.5-31.2,6.5c-10.8,0-20.7-2.2-29.6-6.7c-9-4.4-15.9-10.5-20.8-18.1h-0.6v96.4H42.4V248.5H78.8z M167.6,324
		c0-5.9-0.9-11.8-2.7-17.6c-1.8-5.8-4.5-11-8.1-15.7c-3.6-4.6-8.1-8.4-13.6-11.3c-5.5-2.9-11.9-4.3-19.3-4.3c-7,0-13.2,1.5-18.7,4.4
		c-5.5,3-10.2,6.8-14.1,11.4c-3.9,4.7-6.9,9.9-8.9,15.9c-2,5.9-3,11.8-3,17.8c0,5.9,1,11.8,3,17.6c2,5.8,5,11,8.9,15.7
		c3.9,4.6,8.6,8.4,14.1,11.3c5.5,2.9,11.7,4.3,18.7,4.3c7.4,0,13.8-1.5,19.3-4.4c5.5-3,10-6.8,13.6-11.4c3.6-4.6,6.3-9.9,8.1-15.9
		C166.7,335.8,167.6,329.9,167.6,324z"/>
	<g>
		<path class="st1" d="M365.2,296.9c-3.9-8.8-9.4-16.2-16.3-22.2c-7-6-15.2-10.6-24.6-13.8c-9.4-3.2-19.6-4.8-30.6-4.8
			c-4,0-8.5,0.2-13.5,0.6c-5,0.4-9.2,1.2-12.8,2.2l2.2-48.5h91.6v-34.2H233.5l-3.8,122.7c3.4-1.7,7.2-3.3,11.6-4.8
			c4.3-1.5,8.8-2.8,13.3-4c4.5-1.2,9.2-2.1,14-2.7c4.8-0.6,9.2-0.9,13.5-0.9c6.1,0,12.2,0.7,18.1,2.1c5.9,1.4,11.3,3.8,16,7.3
			s8.6,8.1,11.6,13.8c3,5.7,4.4,12.9,4.4,21.6c0,6.8-1.1,12.8-3.3,18.2c-2.2,5.4-5.2,9.9-9,13.5c-3.8,3.6-8.2,6.3-13.3,8.2
			c-5.1,1.9-10.5,2.9-16.2,2.9c-10.1,0-18.9-2.7-26.3-8.1c-7.4-5.4-12.7-12.5-15.9-21.4l-0.4,0.2l-27.5,25.8
			c5.6,9.1,12.7,16.7,21.6,22.7c12.9,8.8,28.7,13.2,47.6,13.2c11.2,0,21.8-1.8,31.7-5.4c9.9-3.6,18.6-8.8,26-15.5
			c7.4-6.8,13.3-15.1,17.6-24.9c4.3-9.8,6.5-21,6.5-33.5C371.1,315.7,369.1,305.6,365.2,296.9z"/>
	</g>
</g>
</svg>
